<?xml version="1.0" encoding="UTF-8" standalone="no"?>
<!-- Created with Inkscape (http://www.inkscape.org/) -->

<svg
   xmlns:dc="http://purl.org/dc/elements/1.1/"
   xmlns:cc="http://creativecommons.org/ns#"
   xmlns:rdf="http://www.w3.org/1999/02/22-rdf-syntax-ns#"
   xmlns:svg="http://www.w3.org/2000/svg"
   xmlns="http://www.w3.org/2000/svg"
   xmlns:sodipodi="http://sodipodi.sourceforge.net/DTD/sodipodi-0.dtd"
   xmlns:inkscape="http://www.inkscape.org/namespaces/inkscape"
   width="210mm"
   height="297mm"
   viewBox="0 0 210 297"
   version="1.1"
   id="svg8"
   inkscape:export-filename=".\static\img\tank.png"
   inkscape:export-xdpi="96"
   inkscape:export-ydpi="96"
   inkscape:version="0.92.4 (5da689c313, 2019-01-14)"
   sodipodi:docname="storage.svg">
  <defs
     id="defs2" />
  <sodipodi:namedview
     id="base"
     pagecolor="#ffffff"
     bordercolor="#666666"
     borderopacity="1.0"
     inkscape:pageopacity="0.0"
     inkscape:pageshadow="2"
     inkscape:zoom="4.9613497"
     inkscape:cx="267.44083"
     inkscape:cy="610.51725"
     inkscape:document-units="mm"
     inkscape:current-layer="layer1"
     showgrid="false"
     inkscape:window-width="1920"
     inkscape:window-height="1017"
     inkscape:window-x="-8"
     inkscape:window-y="-8"
     inkscape:window-maximized="1" />
  <metadata
     id="metadata5">
    <rdf:RDF>
      <cc:Work
         rdf:about="">
        <dc:format>image/svg+xml</dc:format>
        <dc:type
           rdf:resource="http://purl.org/dc/dcmitype/StillImage" />
        <dc:title></dc:title>
      </cc:Work>
    </rdf:RDF>
  </metadata>
  <g
     inkscape:label="Layer 1"
     inkscape:groupmode="layer"
     id="layer1">
    <g
       id="g71"
       transform="matrix(0.26458333,0,0,0.26458333,56.583038,120.81568)">
      <rect
         id="rect10"
         height="4"
         width="10"
         style="fill:#c7cac7"
         x="24"
         y="0" />
      <path
         id="path12"
         d="M 41.536,58 H 16.464 C 15.103,58 14,56.897 14,55.536 V 6.464 C 14,5.103 15.103,4 16.464,4 H 41.536 C 42.897,4 44,5.103 44,6.464 V 55.536 C 44,56.897 42.897,58 41.536,58 Z"
         style="fill:#e7eced"
         inkscape:connector-curvature="0" />
      <path
         id="path14"
         d="M 14,45 V 55.536 C 14,56.897 15.103,58 16.464,58 H 41.536 C 42.897,58 44,56.897 44,55.536 V 45 Z"
         style="fill:#4376b0;fill-opacity:1"
         inkscape:connector-curvature="0" />
      <g
         id="g16">
</g>
      <g
         id="g18">
</g>
      <g
         id="g20">
</g>
      <g
         id="g22">
</g>
      <g
         id="g24">
</g>
      <g
         id="g26">
</g>
      <g
         id="g28">
</g>
      <g
         id="g30">
</g>
      <g
         id="g32">
</g>
      <g
         id="g34">
</g>
      <g
         id="g36">
</g>
      <g
         id="g38">
</g>
      <g
         id="g40">
</g>
      <g
         id="g42">
</g>
      <g
         id="g44">
</g>
    </g>
    <g
       id="g134"
       transform="matrix(0.26458333,0,0,0.26458333,65.623813,120.81568)">
      <rect
         id="rect73"
         height="4"
         width="10"
         style="fill:#c7cac7"
         x="24"
         y="0" />
      <path
         id="path75"
         d="M 41.536,58 H 16.464 C 15.103,58 14,56.897 14,55.536 V 6.464 C 14,5.103 15.103,4 16.464,4 H 41.536 C 42.897,4 44,5.103 44,6.464 V 55.536 C 44,56.897 42.897,58 41.536,58 Z"
         style="fill:#e7eced"
         inkscape:connector-curvature="0" />
      <path
         id="path77"
         d="M 14,19 V 55.536 C 14,56.897 15.103,58 16.464,58 H 41.536 C 42.897,58 44,56.897 44,55.536 V 19 Z"
         style="fill:#b07643;fill-opacity:1"
         inkscape:connector-curvature="0" />
      <g
         id="g79">
</g>
      <g
         id="g81">
</g>
      <g
         id="g83">
</g>
      <g
         id="g85">
</g>
      <g
         id="g87">
</g>
      <g
         id="g89">
</g>
      <g
         id="g91">
</g>
      <g
         id="g93">
</g>
      <g
         id="g95">
</g>
      <g
         id="g97">
</g>
      <g
         id="g99">
</g>
      <g
         id="g101">
</g>
      <g
         id="g103">
</g>
      <g
         id="g105">
</g>
      <g
         id="g107">
</g>
    </g>
  </g>
</svg>
